<svg xmlns="http://www.w3.org/2000/svg" viewBox="0 0 412 300"><defs><style>.cls-1{fill:#fff;}.cls-2,.cls-5{fill:#995a46;}.cls-3{fill:#97523d;}.cls-4{fill:#ac674e;}.cls-5{opacity:0.7;}.cls-6{fill:#f3f3f3;}.cls-7{fill:#dadce0;}.cls-8{fill:#1a73e6;}.cls-9{fill:#c17a66;}</style></defs><g id="Frame_3_-_Light" data-name="Frame 3 - Light"><rect class="cls-1" width="412" height="300" rx="28"/><path class="cls-2" d="M274.65,200s-39.9-13.35-45.25-12-5.72,7.48,1.35,12.55S264,215.05,265,215.7s16,15.17,28.75,17.72a42,42,0,0,0,12.15.45,130.39,130.39,0,0,0,17.78-27.54c-11.37-3.82-25.92-5.75-25.92-5.75Z"/><path class="cls-3" d="M265.91,216.2l-1.73-1c.57-1,3.47-6,3.73-6.42l1.67,1.11-.84-.55.84.55C269.38,210.19,267.22,213.92,265.91,216.2Z"/><path class="cls-4" d="M323.23,157.54c-23.28-16.86-64.68-17-80.13-14-15.75,3.05-4.88,11.87-4.88,11.87-9.57-1.13-15.35,1.31-15.84,5.6-.52,4.47,7.15,8,7.15,8s-3.66.44-5.52,1.71c-2.11,1.44-3.13,5.13-.29,8.64s21.16,9.48,21.16,9.48,44,24.19,71.65,30.6a129.58,129.58,0,0,0,18.52-50A52.21,52.21,0,0,0,323.23,157.54Z"/><path class="cls-5" d="M238.22,155.38a160.16,160.16,0,0,1,26.29,5.05c11.33,3.08,26.21,11,32.36,15.33a27.81,27.81,0,0,1,3.61,3c.47.48.92.77.75,1.48a2.9,2.9,0,0,1-1.23,1.59c-.68.49-1.48.84-2.12,1.4-.31.27-.57.59-.89.86a6.7,6.7,0,0,1-.94.63c-5.91,3.67-10.92,8.77-17.17,11.82a16.18,16.18,0,0,1-6.59,1.84,4.37,4.37,0,0,1-2.41-.69c-1.14-.54-2.39-.9-3.57-1.34q-5.78-2.15-11.58-4.22c-3.26-1.15-6.52-2.3-9.82-3.35h0s-18.25-5.88-21.16-9.48-1.82-7.2.29-8.64c1.86-1.27,5.52-1.71,5.52-1.71s-7.67-3.48-7.15-8C222.87,156.69,228.65,154.25,238.22,155.38Z"/><path class="cls-3" d="M284.4,188.4A36.83,36.83,0,0,1,271.57,186l.76-1.84c.1,0,9.54,3.85,18.29,1.5,9.14-2.45,11-9.56,11.1-9.86l1.94.48c-.08.35-2.2,8.54-12.52,11.31A26.06,26.06,0,0,1,284.4,188.4Z"/><path class="cls-3" d="M279.73,188.5l-.93-1.77c9.54-5,13.09-16.74,13.12-16.86l1.92.56C293.69,171,290,183.12,279.73,188.5Z"/><path class="cls-3" d="M280.88,186.8c-15-8.46-52.67-17.15-53-17.24l.45-1.95c1.55.36,38.32,8.85,53.58,17.45Z"/><path class="cls-3" d="M291.4,173.57c-.11-.07-10.88-6.72-28.11-12.41-5.36-1.77-26.39-5.32-26.6-5.35l.33-2c.87.15,21.39,3.61,26.89,5.43,17.49,5.77,28.44,12.54,28.55,12.61Z"/><rect class="cls-1" x="174.67" y="95.14" width="80.56" height="155.16" rx="5.97" transform="translate(-58.35 209.36) rotate(-46.42)"/><polygon class="cls-6" points="252.91 180.37 286.87 186.32 287.11 210.3 248.27 182.3 252.91 180.37"/><path class="cls-7" d="M220.41,120.05l-4.26-4a1.47,1.47,0,0,0-2.08,0L191.7,94.76a7.36,7.36,0,0,0-10.39.25l-46.64,49a7.36,7.36,0,0,0,.26,10.4L237.2,251.75a7.36,7.36,0,0,0,10.39-.26l46.64-49a7.37,7.37,0,0,0-.26-10.4l-52.2-49.68a1.47,1.47,0,0,0-.05-2.08l-10.65-10.14a1.47,1.47,0,0,0-2.08.05l-8.52-8.11A1.47,1.47,0,0,0,220.41,120.05ZM293,193.15a5.89,5.89,0,0,1,.2,8.32l-46.63,49a5.89,5.89,0,0,1-8.32.2L135.94,153.35a5.9,5.9,0,0,1-.21-8.32l46.64-49a5.9,5.9,0,0,1,8.32-.21Z"/><path class="cls-8" d="M235.67,192.44a23,23,0,1,1-.8-32.55A23,23,0,0,1,235.67,192.44Z"/><path class="cls-1" d="M219.79,161.61a1.45,1.45,0,0,0-1.27,1.62l2.56,20.66-7.3.87a1.45,1.45,0,0,0-1.27,1.62,1.48,1.48,0,0,0,1.63,1.28l8.74-1a1.44,1.44,0,0,0,1-.55,1.47,1.47,0,0,0,.3-1.09l-2.75-22.09A1.46,1.46,0,0,0,219.79,161.61Z"/><path class="cls-4" d="M301.87,181.69s-4.1,5.75-16.94,6.3-27-9.58-35.12-7.3c-6.8,1.91-7.58,6.83-5.18,12.55,3.16,7.52,28.81,20.39,34.21,25.24,5.69,5.12,17.67,11.11,30.2,11.57A129.92,129.92,0,0,0,334,175.65C325.1,170.37,311,172,301.87,181.69Z"/><path class="cls-9" d="M250.51,194.4c3.75.37,8-2.19,7.44-6.42-.64-4.43-4-6.45-8.53-7.16-5.58,1.72-6.86,5.59-5.56,10.24A9.42,9.42,0,0,0,250.51,194.4Z"/><path class="cls-4" d="M141.32,193.08c4.6.54,8.17-.1,9.8-3,.75-1.36,0-4.31,0-4.31s11,3.34,16.73,3.3,7.58-1.47,8.14-5.19a7.56,7.56,0,0,0-.37-3.92s8.26,2.18,11.5-.17,3.33-9.14-1.63-12.23c-3.65-2.27-28.55-17-35.45-21.12-1.18-.67-1.79-1.06-1.79-1.06l1.79,1.06c4.34,2.47,16.47,8.74,35,13.52,8.35,2.16,10.7-4.11,8.81-9.14s-7.57-6.13-28.91-22.77C141.8,110,126.8,96,126.8,96s5.89-.49,16.09-1.46c7.9-.75,19.61-2.15,23.05-3.07,9.51-2.56,8.81-11,3.8-15-2.76-2.17-6.49-2.52-10-3A130.65,130.65,0,0,1,146.09,71c-7.64-1.8-15.18-4.13-22.65-6.35-4.31-1.28-8.43-2.64-12.67-3.81a130.5,130.5,0,0,0-34,107c4.24,2.63,8.59,5,13,7.23C105.11,182.73,130,191.73,141.32,193.08Z"/><rect class="cls-3" x="122.78" y="88.96" width="2" height="8.67" transform="translate(-25.62 134.61) rotate(-52.46)"/><path class="cls-3" d="M175.28,180.86c-34.46-12.94-66-31.87-66.34-32.06l1-1.71c.32.19,31.73,19,66,31.9Z"/><path class="cls-3" d="M150.83,186.68a270.09,270.09,0,0,1-51.8-23l1-1.7a269,269,0,0,0,51.37,22.79Z"/><path class="cls-9" d="M179.09,153.47a6.12,6.12,0,0,0,.71,5c1.74.52,3.48,1,5.22,1.47,8,2.07,10.48-3.6,9-8.5a16,16,0,0,0-4.58-2C184.86,148.24,180.27,149.31,179.09,153.47Z"/><path class="cls-9" d="M159.56,82.58a21.67,21.67,0,0,0,13.75,1.63,9.06,9.06,0,0,0-3.57-7.75c-2.76-2.17-6.49-2.52-10-3-1.88-.24-3.76-.54-5.64-.87C152.85,75.62,155.15,80.58,159.56,82.58Z"/><path class="cls-9" d="M174.28,173.57c-1.13,2.59.73,5.36,5.29,7.08,2.59.32,5.81.37,7.57-.9s2.65-4.09,2.12-6.79a14.91,14.91,0,0,0-2.63-1.29C182,169.91,175.86,169.94,174.28,173.57Z"/><path class="cls-9" d="M161.17,184.32a4.41,4.41,0,0,0,.53,4,34.67,34.67,0,0,0,6.17.7c5.76,0,7.58-1.47,8.14-5.19,0-.27.06-.53.08-.77a18,18,0,0,0-4.52-1.77C167,180.13,162.39,180.87,161.17,184.32Z"/><path class="cls-9" d="M137.84,191.39a4.58,4.58,0,0,0-.21,1.08c1.35.27,2.59.47,3.69.61,4.6.54,8.17-.1,9.8-3a2.64,2.64,0,0,0,.28-.9,19.88,19.88,0,0,0-3.24-1C143.56,187.05,139,187.91,137.84,191.39Z"/><path class="cls-3" d="M156.23,151.22c-21.56-11.82-34.78-20.2-34.92-20.28l1.08-1.69c.13.08,13.3,8.43,34.8,20.22Z"/><path class="cls-7" d="M206,281.48c-72.5,0-131.48-59-131.48-131.48S133.5,18.52,206,18.52,337.48,77.5,337.48,150,278.5,281.48,206,281.48Zm0-261C134.61,20.52,76.52,78.61,76.52,150S134.61,279.48,206,279.48,335.48,221.39,335.48,150,277.39,20.52,206,20.52Z"/></g></svg>
