<svg xmlns="http://www.w3.org/2000/svg" viewBox="0 0 412 300"><defs><style>.cls-1{fill:#fff;}.cls-2{fill:#f3f3f3;}.cls-3{fill:#d2e3fc;}.cls-4{fill:#dadce0;}.cls-5{fill:#ac674e;}.cls-6{fill:#97523d;}.cls-7{fill:#c17a66;}</style></defs><g id="Frame_1_-_Light" data-name="Frame 1 - Light"><rect class="cls-1" width="412" height="300" rx="28"/><path class="cls-1" d="M118.81,168.28a5.92,5.92,0,0,1-5-6.71L123.86,94.5a6,6,0,0,1,6.77-5L272,110.77a5.92,5.92,0,0,1,5,6.71L266.9,184.55a5.94,5.94,0,0,1-6.77,4.94Z"/><polygon class="cls-2" points="183.2 151.21 133.23 94.25 151.64 88.18 187.91 154.81 183.2 151.21"/><path class="cls-3" d="M174.36,136a23.14,23.14,0,1,1,19.45,26.31A23.17,23.17,0,0,1,174.36,136Z"/><path class="cls-4" d="M221.73,186.75l5.85.88a1.48,1.48,0,0,0,1.68-1.24L260,191a7.39,7.39,0,0,0,8.4-6.21l10.1-67.23a7.42,7.42,0,0,0-6.22-8.41L131.93,88.09a7.41,7.41,0,0,0-8.41,6.21l-10.09,67.23a7.41,7.41,0,0,0,6.21,8.41l71.62,10.75a1.48,1.48,0,0,0,1.24,1.68l14.62,2.19a1.48,1.48,0,0,0,1.68-1.24l11.69,1.75A1.47,1.47,0,0,0,221.73,186.75ZM119.86,168.47a5.92,5.92,0,0,1-5-6.72L125,94.52a5.93,5.93,0,0,1,6.73-5L272,110.61a5.92,5.92,0,0,1,5,6.73l-10.09,67.23a5.92,5.92,0,0,1-6.72,5Z"/><path class="cls-1" d="M205.23,152.22a1.46,1.46,0,0,0,.1-2.07l-14-15.52,5.5-4.92a1.47,1.47,0,0,0,.11-2.07,1.49,1.49,0,0,0-2.09-.11l-6.58,5.9a1.46,1.46,0,0,0-.49,1,1.42,1.42,0,0,0,.38,1.07l15,16.58A1.48,1.48,0,0,0,205.23,152.22Z"/><path class="cls-5" d="M95.94,173.69c11,9.47,15.16,10.09,18.64,10.77a22.28,22.28,0,0,0,13.2-1.87,47.75,47.75,0,0,0,14,4.64c5.81.74,8.12,0,11.49-1.13a26.46,26.46,0,0,0,6.44-3.44s8,3.33,13.43,3.18,11.33-4.36,11.33-4.36,6.25,5.44,12.47,6.15,8.6-3.13,7.21-8.35S191.5,158,176.56,136C162,114.66,147,92.92,147,92.92s19.05,3.6,26.73,4.82c4.66.75,10,1.56,14.39-.77,5.51-2.91,8.76-10.73,4.14-15.17-2.55-2.46-6.24-3.18-9.69-4a132.33,132.33,0,0,1-13.41-3.9c-7.45-2.57-14.77-5.64-22-8.61-8.79-3.59-16.7-7.49-26.84-9.29-1.39-.25-2.8-.45-4.23-.59A130.1,130.1,0,0,0,75.52,150c0,.95,0,1.89,0,2.83A249.58,249.58,0,0,0,95.94,173.69Z"/><path class="cls-6" d="M183.83,182.23c-26.58-23.68-48.76-47.49-49-47.73l1.47-1.36c.22.23,22.33,24,48.84,47.59Z"/><path class="cls-6" d="M159.18,183.49c-27.54-18.17-43.56-35.84-43.72-36l1.48-1.34c.16.18,16,17.67,43.34,35.7Z"/><path class="cls-6" d="M127.19,183.4c-13.46-9.87-28.07-23.33-28.22-23.47l1.36-1.47c.14.14,14.67,13.52,28,23.33Z"/><rect class="cls-6" x="143.03" y="83.43" width="2" height="11.63" transform="translate(-24.34 108.23) rotate(-38.21)"/><path class="cls-7" d="M181.64,87a22.36,22.36,0,0,0,11.94,4c1.4-3.17,1.3-6.75-1.31-9.26s-6.24-3.18-9.69-4c-1.61-.37-3.22-.79-4.81-1.23C176.33,79.43,177.79,84.4,181.64,87Z"/><path class="cls-7" d="M198.4,177.13c-3.89-2.63-9.3-3.56-11,.37-1,2.39-.25,4.81,1.47,7.09a21.36,21.36,0,0,0,8.06,3c3.64.41,6-.8,7-2.94C203.54,181.87,201.56,179.27,198.4,177.13Z"/><path class="cls-5" d="M293.59,148.83c-13.56-4.5-14.09.84-14.09.84s-3-1.87-6.75-4c-5.61-3.23-11.17-5.52-13,0a7.76,7.76,0,0,0,1.93,7.78s-2.67-2.52-9-5.24-10.86,3.15-9.91,7.75c.83,4,8,9.91,9.71,11.28l.37.3-.37-.3c-1.53-1.18-7.47-5.54-11.41-5.37-5.43.22-6.88,4.94-5.47,9.56,2.22,7.29,39.12,50,39.12,50s-2.48-.05-10.89-2.68-16.1-4-22.59-2.49-7.77,8.66-3.54,11c4.42,2.41,10.16,5.76,18.58,11.15,6.89,4.42,19.56,11.71,28.86,15.43a130.48,130.48,0,0,0,48.56-76.83C319.25,161.41,298.17,150.35,293.59,148.83Z"/><path class="cls-7" d="M239.51,170.52c3.64,1.75,8.34,1.86,9.27-1.69a5.45,5.45,0,0,0-1.31-4.93c-2.12-1.17-4.5-2.15-6.41-2.07-3.75.15-5.6,2.45-5.92,5.38A12.15,12.15,0,0,0,239.51,170.52Z"/><path class="cls-7" d="M244.84,222a19,19,0,0,0-7.31-3.94c-3.08,2.74-3.08,7.33.16,9.1,2.3,1.25,5,2.76,8.16,4.68C248.65,230.46,248.31,225,244.84,222Z"/><path class="cls-7" d="M248.52,156.13c3.85,1.21,8.53.64,8.94-3a4.81,4.81,0,0,0-.62-2.95c-1.16-.63-2.54-1.31-4.17-2a6.91,6.91,0,0,0-9.73,4.47A11.18,11.18,0,0,0,248.52,156.13Z"/><path class="cls-7" d="M265.51,150.59c3.1,1,6.87.51,7.2-2.43a4.06,4.06,0,0,0-.95-3.06c-5.15-2.85-10.07-4.54-11.86.24v0C260.35,147.82,262.4,149.61,265.51,150.59Z"/><path class="cls-7" d="M283.78,151.83c2.53.79,5.61.42,5.88-2a3.32,3.32,0,0,0-.62-2.29c-6.73-1.44-8.72.38-9.3,1.44A6.91,6.91,0,0,0,283.78,151.83Z"/><path class="cls-6" d="M277.85,229.29a33.44,33.44,0,0,0-5.13-8.59l1.52-1.3a34.9,34.9,0,0,1,5.48,9.18Z"/><path class="cls-6" d="M290.6,200.5c-.32-.27-32.12-27.11-41.61-35.21l1.3-1.52c9.49,8.1,41.28,34.94,41.6,35.21Z"/><path class="cls-6" d="M303.22,188.37c-18.74-18.53-43.43-35.1-43.68-35.26l1.11-1.67c.25.17,25.09,16.84,44,35.51Z"/><path class="cls-6" d="M314.3,177.36a210.79,210.79,0,0,0-35.59-27.1l1-1.73c.19.11,19.54,11.44,36,27.39Z"/><path class="cls-4" d="M206,281.48c-72.5,0-131.48-59-131.48-131.48S133.5,18.52,206,18.52,337.48,77.5,337.48,150,278.5,281.48,206,281.48Zm0-261C134.61,20.52,76.52,78.61,76.52,150S134.61,279.48,206,279.48,335.48,221.39,335.48,150,277.39,20.52,206,20.52Z"/></g></svg>
